<?xml version="1.0" encoding="UTF-8"?>
<svg version="1.1" viewBox="0 0 133.33 133.27" xml:space="preserve" xmlns="http://www.w3.org/2000/svg" xmlns:cc="http://creativecommons.org/ns#" xmlns:dc="http://purl.org/dc/elements/1.1/" xmlns:rdf="http://www.w3.org/1999/02/22-rdf-syntax-ns#"><metadata><rdf:RDF><cc:Work rdf:about=""><dc:format>image/svg+xml</dc:format><dc:type rdf:resource="http://purl.org/dc/dcmitype/StillImage"/></cc:Work></rdf:RDF></metadata><defs><clipPath id="c"><path d="M 0,99.952 H 99.998 V 0 H 0 Z"/></clipPath><linearGradient id="a" x2="1" gradientTransform="matrix(37.721 -37.721 -37.721 -37.721 37.131 35.565)" gradientUnits="userSpaceOnUse"><stop stop-color="#f39568" offset="0"/><stop stop-color="#ffd965" offset="1"/></linearGradient><clipPath id="b"><path d="M 0,99.952 H 99.998 V 0 H 0 Z"/></clipPath></defs><g transform="matrix(1.3333 0 0 -1.3333 0 133.27)"><g clip-path="url(#c)"><g transform="translate(0,6.9158)"><path d="m0 0v86.321c0 2.23 1.154 3.746 2.793 5 0.901 0.689 2.922 1.694 4.221 1.694h49.639c12.614 0-0.966 0.047 0 0 12.864-0.621 27.114-10.121 34.001-20.175 3.724-5.436 6.679-11.359 8.312-17.743 0.413-1.616 0.791-3.259 0.903-4.906 0.181-2.667 0.166-5.007-9e-3 -6.659-0.226-2.124-0.965-4.262-1.534-5.679-2.324-5.79-5.439-11.048-9.86-15.415-3.289-3.25-7.265-5.8-11.742-6.956-3.08-0.795-6.255-0.998-9.518-0.613-3.535 0.417-6.793 1.558-9.681 3.667-1.5 1.095-2.821 2.375-3.865 3.926 0.088 0.04 5.218 3.382 7.69 5.022 2.941 1.952 5.877 3.913 8.809 5.88 0.144 0.096 0.319 0.296 0.313 0.441-0.021 0.526-0.064 1.061-0.187 1.571-0.692 2.875-2.407 5.034-4.85 6.606-2.648 1.705-5.527 2.328-8.625 1.469-1.904-0.528-3.485-1.6-4.841-3.019l-0.207-0.189 0.021 5e-3c-0.056-0.026-0.123-0.04-0.167-0.08-0.987-0.918-1.973-1.837-2.956-2.759-2.367-2.222-4.729-4.447-7.097-6.667-3.569-3.347-7.142-6.691-10.712-10.037-2.295-2.151-4.587-4.306-6.882-6.457-4.092-3.836-8.185-7.671-12.279-11.505-1.907-1.786-3.821-3.564-5.724-5.355-0.511-0.481-0.987-0.941-1.465-1.406-0.339-0.329-0.787-1.192-1.226-1.188-0.869 0.788-1.434 1.345-1.945 2.017-0.611 0.801-1.33 2.083-1.33 3.189" fill="#ffd866"/></g></g><path d="m51.617 47.083c-0.987-0.918-1.975-1.836-2.958-2.759-2.366-2.221-4.728-4.446-7.096-6.666-3.57-3.347-7.142-6.691-10.712-10.037-2.295-2.151-4.586-4.307-6.881-6.458-4.093-3.835-8.186-7.67-12.28-11.504-1.907-1.786-3.821-3.564-5.724-5.355-0.907-0.854-1.795-1.729-2.691-2.595 0.322-0.229 0.627-0.489 0.969-0.684 1.003-0.574 2.019-1.025 3.236-1.025h8e-3c17.338 0.021 34.675 0.014 52.014 0.018 0.604 1e-3 1.206 0.047 1.803 0.135 2.082 0.306 4.171 0.58 6.236 0.972 3.86 0.734 7.587 1.91 11.142 3.596 3.228 1.53 6.2 3.455 8.849 5.855 1.717 1.555 3.233 3.295 4.566 5.192 3.584 5.099 5.602 10.834 6.808 16.888 0.303 1.522 0.505 3.065 0.704 4.604 0.14 1.077 0.195 2.165 0.288 3.249-0.653-1.48-1.22-3.007-1.973-4.434-3.48-6.597-8.783-11.196-15.628-14.068-2.713-1.138-5.511-1.995-8.429-2.377-5.517-0.723-10.711 0.107-15.375 3.348-4.483 3.116-7.262 7.377-8.531 12.657-0.449 1.869-0.675 3.756-0.493 5.677 0.028 0.303 0.198 1.367 0.382 1.875 0.431 1.336 0.454 1.601 1.11 2.709 0.276 0.466 1.347 1.633 1.622 2.055-0.056-0.026-0.923-0.827-0.966-0.868" fill="url(#a)"/><g clip-path="url(#b)"><g transform="translate(49.642 41.781)"><path d="m0 0c0.014 0.285 0.05 0.574 0.102 0.854 0.303 1.608 0.598 2.207 1.217 3.261 0.255 0.434 0.548 0.846 0.823 1.268 0 0-0.022-5e-3 -0.022-5e-3 0.069 0.063 0.138 0.126 0.208 0.189 1.356 1.419 2.936 2.491 4.841 3.019 3.098 0.859 5.976 0.236 8.625-1.469 2.442-1.572 4.158-3.731 4.85-6.605 0.123-0.511 0.165-1.046 0.186-1.572 6e-3 -0.145-0.168-0.344-0.313-0.441-2.931-1.967-5.867-3.928-8.809-5.88-1.962-1.302-5.656-3.755-7.689-5.022-1.46 2.373 0 0-1.13 1.792-1.897 3.247-3.08 6.715-2.889 10.611" fill="#f39669"/></g><g transform="translate(51.969 47.347)"><path d="m0 0c-0.069-0.063-0.138-0.126-0.207-0.188 0.069 0.062 0.138 0.125 0.207 0.188" fill="#e52621"/></g></g></g></svg>
